<?xml version="1.0" encoding="UTF-8" standalone="no"?>
<svg inkscape:version="1.4 (e7c3feb100, 2024-10-09)" sodipodi:docname="JJ.svg" viewBox="0 0 640 640" version="1.1" height="640" width="640" id="svg2" inkscape:export-filename="JJ.png" inkscape:export-xdpi="300" inkscape:export-ydpi="300" xmlns:inkscape="http://www.inkscape.org/namespaces/inkscape" xmlns:sodipodi="http://sodipodi.sourceforge.net/DTD/sodipodi-0.dtd" xmlns="http://www.w3.org/2000/svg" xmlns:svg="http://www.w3.org/2000/svg" xmlns:rdf="http://www.w3.org/1999/02/22-rdf-syntax-ns#" xmlns:cc="http://creativecommons.org/ns#" xmlns:dc="http://purl.org/dc/elements/1.1/">
  <defs id="defs8" />
  <sodipodi:namedview inkscape:current-layer="svg2" inkscape:cy="320" inkscape:cx="319.3509127789047" inkscape:zoom="0.7703125" showgrid="false" id="namedview6" inkscape:window-height="699" inkscape:window-width="1366" inkscape:pageshadow="2" inkscape:pageopacity="0" guidetolerance="10" gridtolerance="10" objecttolerance="10" borderopacity="1" bordercolor="#666666" pagecolor="#ffffff" inkscape:showpageshadow="2" inkscape:pagecheckerboard="0" inkscape:deskcolor="#d1d1d1" inkscape:window-x="0" inkscape:window-y="0" inkscape:window-maximized="1" />
  <metadata id="metadata8">
    <rdf:RDF>
      <cc:Work rdf:about="">
        <dc:format>image/svg+xml</dc:format>
        <dc:type rdf:resource="http://purl.org/dc/dcmitype/StillImage" />
      </cc:Work>
    </rdf:RDF>
  </metadata>
  <path style="fill:#77767b;fill-opacity:1" d="m 295.51946,601.52563 c -60.02778,-5.54443 -111.26583,-25.92642 -157.5,-62.65194 -7.95323,-6.31755 -32.55033,-30.16126 -38.038945,-36.87384 -1.35358,-1.65543 -4.28982,-5.25543 -6.52497,-8 -16.649022,-20.44353 -32.425057,-48.02829 -43.173656,-75.49012 -4.810956,-12.29162 -6.110284,-16.37812 -9.697652,-30.5 -2.032093,-7.99945 -3.119164,-13.2696 -6.600613,-32 -2.114557,-11.37644 -3.054586,-39.51542 -1.947197,-58.28771 0.603046,-10.22273 1.294059,-18.90653 1.535585,-19.29733 0.241527,-0.3908 0.91649,-4.24404 1.499917,-8.56275 2.449261,-18.1302 11.984435,-51.29097 18.935396,-65.85221 0.525097,-1.1 2.549166,-5.558 4.497931,-9.90667 4.187511,-9.34443 11.789798,-22.91363 19.173018,-34.22159 36.326786,-55.63724 92.286586,-98.119384 153.841186,-116.789234 33.28308,-10.09494 52.06118,-12.92309 86,-12.95235 21.5844,-0.0186 37.214,1.32133 53,4.54373 5.5,1.12272 11.125,2.26477 12.5,2.53788 1.375,0.27312 9.25,2.50414 17.5,4.95782 45.70955,13.59474 87.44755,38.9476 121.00273,73.500524 13.96258,14.37775 15.663,16.3454 25.77807,29.82932 12.13291,16.1738 23.12544,34.87746 31.14954,53.00057 2.55691,5.775 5.04907,11.4 5.53814,12.5 5.62272,12.6465 11.72274,35.52302 17.0656,64 1.31607,7.01458 3.04993,41.8153 2.4965,50.10804 -0.25297,3.79058 -0.72187,11.16696 -1.04199,16.39196 -0.89702,14.64076 -5.19891,38.36462 -9.51993,52.5 -2.73023,8.93145 -8.29399,25.39491 -9.46248,28 -0.74009,1.65 -2.93599,6.6 -4.87978,11 -13.34609,30.21047 -33.10175,58.88082 -57.60582,83.60026 -17.00871,17.15821 -23.68318,22.82817 -40.27466,34.21329 -35.29737,24.22116 -71.33058,39.35194 -110.24592,46.29359 -25.2153,4.49786 -55.04859,6.25156 -75,4.40876 z m 40,-27.96302 c 60.63851,-3.91694 119.04006,-30.14317 162.36044,-72.91076 50.29383,-49.65208 78.17287,-115.5353 78.13285,-184.64212 -0.031,-53.56495 -16.88924,-106.00298 -48.15935,-149.80118 -20.79229,-29.12254 -47.66927,-53.92757 -78.11584,-72.093884 -12.68458,-7.56841 -34.15946,-17.72775 -46.51504,-22.00536 -12.55365,-4.34617 -34.87168,-9.83934 -49.70306,-12.23347 -15.53331,-2.50744 -57.66913,-2.51469 -72,-0.0124 -40.31413,7.03922 -65.86771,16.22791 -97.31285,34.99226 C 122.70774,131.5541 77.515105,195.8391 64.00724,265.83526 c -8.300035,43.0098 -5.736611,88.92409 7.15606,128.17447 3.583224,10.90875 11.474106,30.6924 14.159487,35.5 1.075247,1.925 3.743824,6.875 5.930172,11 2.186348,4.125 7.594216,12.9 12.017501,19.5 23.24136,34.67861 54.37094,62.96939 91.20197,82.88499 17.34029,9.3764 39.07868,18.5006 51.32208,21.5413 24.20471,6.01133 34.52118,7.85391 50.22495,8.97044 16.27579,1.15721 23.55686,1.18599 39.5,0.15615 z m 13.3313,-53.6704 c -1.43635,-1.62036 -1.71484,-5.1751 -2,-25.52911 -0.36761,-26.2386 -0.56736,-27.02775 -7.18499,-28.38558 -1.73047,-0.35507 -6.97131,-2.46405 -11.64631,-4.68664 -14.6699,-6.97434 -27.83554,-22.9913 -30.89038,-37.58037 -0.61029,-2.91457 -1.10962,-9.51993 -1.10962,-14.67857 0,-10.56503 -0.72806,-12.00536 -6.6279,-13.11218 -4.65032,-0.87241 -18.02577,0.35673 -20.46608,1.88073 -1.69004,1.05545 -1.90602,2.45707 -1.90602,12.36902 0,32.60372 17.61256,59.98446 48.15868,74.86817 5.13773,2.50338 10.91632,5.32207 12.84132,6.26376 l 3.5,1.71218 v 11.38907 c 0,13.80715 -0.28417,14.17141 -9.56056,12.25541 -3.39217,-0.70065 -6.90375,-1.65782 -7.80351,-2.12707 -0.89976,-0.46924 -3.43593,-1.6177 -5.63593,-2.55212 -20.81266,-8.83996 -36.02615,-20.29998 -48.92701,-36.85576 -9.87904,-12.67785 -17.61006,-29.70429 -20.4967,-45.14095 -0.51707,-2.76514 -1.2647,-22.67974 -1.66139,-44.25468 -0.48933,-26.61284 -1.07694,-39.52235 -1.82734,-40.14512 -0.60835,-0.50488 -4.87034,-2.29175 -9.47109,-3.97082 -10.87038,-3.9672 -16.55214,-7.70038 -24.43084,-16.05222 -10.28038,-10.89774 -14.68563,-22.49127 -14.68563,-38.64894 0,-12.65646 -0.80996,-13.59179 -12.29191,-14.19444 -14.93083,-0.78366 -17.7123,1.03033 -17.70054,11.54375 0.0249,22.22941 7.86059,42.57092 22.96075,59.60614 4.73806,5.34524 18.5059,14.96035 27.6474,19.30824 5.01364,2.38459 9.54128,4.33562 10.06144,4.33562 0.52016,0 1.93059,0.91753 3.1343,2.03896 1.97675,1.84162 2.18856,3.03202 2.18856,12.3 0,6.64747 -0.4226,10.68364 -1.2,11.46104 -3.00114,3.00114 -13.28064,0.33718 -30.31322,-7.85577 -28.71258,-13.81121 -51.46398,-40.31821 -59.60515,-69.44423 -2.02398,-7.24104 -2.27413,-10.76077 -2.63682,-37.10063 -0.3586,-26.04284 -0.22739,-29.27393 1.24867,-30.75 1.47803,-1.47802 5.84348,-1.64937 42.02124,-1.64937 h 40.37187 l 1.55671,2.22251 c 1.29229,1.845 1.5567,5.89122 1.5567,23.82186 0,24.35085 0.67139,27.87517 6.63823,34.84609 4.66384,5.44865 10.38315,8.67945 18.83435,10.63941 5.43358,1.26013 7.84308,1.37627 11.17051,0.53842 5.43956,-1.3697 12.05091,-1.37243 12.89582,-0.005 0.36132,0.58463 0.62303,10.37707 0.58158,21.76098 -0.0414,11.38391 0.28335,22.04308 0.72178,23.68704 1.06268,3.98462 4.30336,5.54383 9.00736,4.33375 5.02404,-1.2924 6.31219,-1.82864 17.15037,-7.13955 22.02261,-10.79148 38.26918,-30.63152 44.57906,-54.43922 1.8615,-7.02359 2.17622,-160.65097 0.33366,-162.87113 -0.86972,-1.04828 -4.07289,-1.39516 -12.88018,-1.39516 -10.08664,0 -11.95352,0.25521 -13.37755,1.82874 -1.509,1.66743 -1.65499,8.44107 -1.65499,76.7899 0,80.91224 0.0531,80.00658 -5.38329,91.88136 -2.37438,5.18643 -10.66926,14.9771 -15.76015,18.60214 -2.7418,1.95233 -3.07976,1.98163 -5.39087,0.46733 l -2.46569,-1.61558 v -105.8545 c 0,-97.24544 0.13449,-105.96612 1.65369,-107.22695 2.46901,-2.04909 81.25506,-2.02299 83.72603,0.0277 1.56511,1.29892 1.66518,8.27722 1.38386,96.5 l -0.30325,95.09982 -2.80789,9 c -6.29772,20.18577 -19.61923,40.28771 -34.10432,51.46287 l -5.54812,4.28039 v 21.34088 c 0,19.04383 0.21995,21.92876 2.04351,26.80264 2.69659,7.20728 8.57779,13.11356 16.74566,16.81705 6.74856,3.05994 9.8609,3.24525 26.66486,1.58761 5.00819,-0.49403 5.5146,1.92838 5.53123,26.4586 0.0138,20.40593 0.13833,21.87359 2.01474,23.75 2.54456,2.54456 2.34373,2.56148 12.28383,-1.03527 28.14964,-10.18573 49.09384,-32.1526 56.32956,-59.08001 1.5334,-5.70648 1.75668,-14.57246 2.1019,-83.46124 0.45801,-91.39524 2.09036,-81.74192 -13.90965,-82.25831 -9.1749,-0.29611 -10.65966,-0.10403 -12.8401,1.66113 l -2.46554,1.99596 -0.5,78.33887 c -0.49447,77.47167 -0.52398,78.39733 -2.66579,83.62009 -2.86362,6.98286 -7.40895,13.9566 -12.44543,19.09458 -5.24598,5.3517 -8.69981,7.1429 -11.63878,6.03604 l -2.25,-0.84739 V 348.09866 241.62314 l 2.22251,-1.55671 c 1.92111,-1.3456 7.61673,-1.5567 42,-1.5567 38.69742,0 39.83285,0.0554 41.81644,2.03895 2.02786,2.02786 2.03699,2.54274 1.67957,94.75 -0.38476,99.26162 -0.052,92.32018 -5.23577,109.21105 -7.10179,23.14048 -26.57712,46.54767 -49.98275,60.07375 -18.14051,10.48337 -36.28424,15.67529 -58,16.59699 -12.87921,0.54664 -14.13359,0.44351 -15.6687,-1.28826 z" fill="#000" id="path817" inkscape:export-filename="path817.png" inkscape:export-xdpi="300" inkscape:export-ydpi="300" />
</svg>
